<mxfile host="app.diagrams.net" modified="2024-06-16T12:05:06.424Z" agent="Mozilla/5.0 (Windows NT 10.0; Win64; x64) AppleWebKit/537.36 (KHTML, like Gecko) Chrome/126.0.0.0 Safari/537.36" etag="4tlGcBRezkP7zIo9Ldux" version="24.5.4" type="github">
  <diagram id="C5RBs43oDa-KdzZeNtuy" name="Page-1">
    <mxGraphModel dx="1050" dy="522" grid="1" gridSize="10" guides="1" tooltips="1" connect="1" arrows="1" fold="1" page="1" pageScale="1" pageWidth="827" pageHeight="1169" math="0" shadow="0">
      <root>
        <mxCell id="WIyWlLk6GJQsqaUBKTNV-0" />
        <mxCell id="WIyWlLk6GJQsqaUBKTNV-1" parent="WIyWlLk6GJQsqaUBKTNV-0" />
        <mxCell id="vc-KUkAJ0mW3v1jckHB1-15" style="edgeStyle=orthogonalEdgeStyle;rounded=0;orthogonalLoop=1;jettySize=auto;html=1;entryX=0.5;entryY=0;entryDx=0;entryDy=0;" edge="1" parent="WIyWlLk6GJQsqaUBKTNV-1" source="vc-KUkAJ0mW3v1jckHB1-0" target="vc-KUkAJ0mW3v1jckHB1-1">
          <mxGeometry relative="1" as="geometry" />
        </mxCell>
        <mxCell id="vc-KUkAJ0mW3v1jckHB1-0" value="Solve Relaxed Linearm Programming" style="rounded=1;whiteSpace=wrap;html=1;" vertex="1" parent="WIyWlLk6GJQsqaUBKTNV-1">
          <mxGeometry x="349" y="80" width="120" height="60" as="geometry" />
        </mxCell>
        <mxCell id="vc-KUkAJ0mW3v1jckHB1-4" style="edgeStyle=orthogonalEdgeStyle;rounded=0;orthogonalLoop=1;jettySize=auto;html=1;entryX=0.5;entryY=0;entryDx=0;entryDy=0;" edge="1" parent="WIyWlLk6GJQsqaUBKTNV-1" source="vc-KUkAJ0mW3v1jckHB1-1" target="vc-KUkAJ0mW3v1jckHB1-3">
          <mxGeometry relative="1" as="geometry" />
        </mxCell>
        <mxCell id="vc-KUkAJ0mW3v1jckHB1-11" style="edgeStyle=orthogonalEdgeStyle;rounded=0;orthogonalLoop=1;jettySize=auto;html=1;entryX=0.5;entryY=0;entryDx=0;entryDy=0;" edge="1" parent="WIyWlLk6GJQsqaUBKTNV-1" source="vc-KUkAJ0mW3v1jckHB1-1" target="vc-KUkAJ0mW3v1jckHB1-7">
          <mxGeometry relative="1" as="geometry" />
        </mxCell>
        <mxCell id="vc-KUkAJ0mW3v1jckHB1-1" value="is solution integer?" style="rhombus;whiteSpace=wrap;html=1;" vertex="1" parent="WIyWlLk6GJQsqaUBKTNV-1">
          <mxGeometry x="344" y="200" width="130" height="80" as="geometry" />
        </mxCell>
        <mxCell id="vc-KUkAJ0mW3v1jckHB1-18" style="edgeStyle=orthogonalEdgeStyle;rounded=0;orthogonalLoop=1;jettySize=auto;html=1;" edge="1" parent="WIyWlLk6GJQsqaUBKTNV-1" source="vc-KUkAJ0mW3v1jckHB1-3" target="vc-KUkAJ0mW3v1jckHB1-17">
          <mxGeometry relative="1" as="geometry" />
        </mxCell>
        <mxCell id="vc-KUkAJ0mW3v1jckHB1-3" value="record as incumbent (potential solution)" style="rounded=1;whiteSpace=wrap;html=1;" vertex="1" parent="WIyWlLk6GJQsqaUBKTNV-1">
          <mxGeometry x="210" y="280" width="120" height="60" as="geometry" />
        </mxCell>
        <mxCell id="vc-KUkAJ0mW3v1jckHB1-12" style="edgeStyle=orthogonalEdgeStyle;rounded=0;orthogonalLoop=1;jettySize=auto;html=1;" edge="1" parent="WIyWlLk6GJQsqaUBKTNV-1" source="vc-KUkAJ0mW3v1jckHB1-7" target="vc-KUkAJ0mW3v1jckHB1-8">
          <mxGeometry relative="1" as="geometry" />
        </mxCell>
        <mxCell id="vc-KUkAJ0mW3v1jckHB1-7" value="Generate cuts if possible" style="rounded=1;whiteSpace=wrap;html=1;" vertex="1" parent="WIyWlLk6GJQsqaUBKTNV-1">
          <mxGeometry x="510" y="280" width="120" height="60" as="geometry" />
        </mxCell>
        <mxCell id="vc-KUkAJ0mW3v1jckHB1-13" style="edgeStyle=orthogonalEdgeStyle;rounded=0;orthogonalLoop=1;jettySize=auto;html=1;entryX=0.5;entryY=0;entryDx=0;entryDy=0;" edge="1" parent="WIyWlLk6GJQsqaUBKTNV-1" source="vc-KUkAJ0mW3v1jckHB1-8" target="vc-KUkAJ0mW3v1jckHB1-9">
          <mxGeometry relative="1" as="geometry" />
        </mxCell>
        <mxCell id="vc-KUkAJ0mW3v1jckHB1-8" value="Add cuts to LP" style="rounded=1;whiteSpace=wrap;html=1;" vertex="1" parent="WIyWlLk6GJQsqaUBKTNV-1">
          <mxGeometry x="510" y="370" width="120" height="60" as="geometry" />
        </mxCell>
        <mxCell id="vc-KUkAJ0mW3v1jckHB1-14" style="edgeStyle=orthogonalEdgeStyle;rounded=0;orthogonalLoop=1;jettySize=auto;html=1;exitX=1;exitY=0.5;exitDx=0;exitDy=0;" edge="1" parent="WIyWlLk6GJQsqaUBKTNV-1" source="vc-KUkAJ0mW3v1jckHB1-9">
          <mxGeometry relative="1" as="geometry">
            <mxPoint x="410" y="170" as="targetPoint" />
            <mxPoint x="770" y="490" as="sourcePoint" />
            <Array as="points">
              <mxPoint x="671" y="490" />
            </Array>
          </mxGeometry>
        </mxCell>
        <mxCell id="vc-KUkAJ0mW3v1jckHB1-24" style="edgeStyle=orthogonalEdgeStyle;rounded=0;orthogonalLoop=1;jettySize=auto;html=1;entryX=1;entryY=0.5;entryDx=0;entryDy=0;" edge="1" parent="WIyWlLk6GJQsqaUBKTNV-1" source="vc-KUkAJ0mW3v1jckHB1-9" target="vc-KUkAJ0mW3v1jckHB1-17">
          <mxGeometry relative="1" as="geometry" />
        </mxCell>
        <mxCell id="vc-KUkAJ0mW3v1jckHB1-9" value="Solve LP with cuts" style="rounded=1;whiteSpace=wrap;html=1;" vertex="1" parent="WIyWlLk6GJQsqaUBKTNV-1">
          <mxGeometry x="510" y="460" width="120" height="60" as="geometry" />
        </mxCell>
        <mxCell id="vc-KUkAJ0mW3v1jckHB1-23" style="edgeStyle=orthogonalEdgeStyle;rounded=0;orthogonalLoop=1;jettySize=auto;html=1;entryX=1;entryY=0.5;entryDx=0;entryDy=0;" edge="1" parent="WIyWlLk6GJQsqaUBKTNV-1" source="vc-KUkAJ0mW3v1jckHB1-17" target="vc-KUkAJ0mW3v1jckHB1-22">
          <mxGeometry relative="1" as="geometry" />
        </mxCell>
        <mxCell id="vc-KUkAJ0mW3v1jckHB1-26" style="edgeStyle=orthogonalEdgeStyle;rounded=0;orthogonalLoop=1;jettySize=auto;html=1;entryX=0.5;entryY=0;entryDx=0;entryDy=0;" edge="1" parent="WIyWlLk6GJQsqaUBKTNV-1" source="vc-KUkAJ0mW3v1jckHB1-17" target="vc-KUkAJ0mW3v1jckHB1-25">
          <mxGeometry relative="1" as="geometry" />
        </mxCell>
        <mxCell id="vc-KUkAJ0mW3v1jckHB1-17" value="is solution better&amp;nbsp;&lt;div&gt;than incumbent?&lt;/div&gt;" style="rhombus;whiteSpace=wrap;html=1;" vertex="1" parent="WIyWlLk6GJQsqaUBKTNV-1">
          <mxGeometry x="194" y="370" width="150" height="100" as="geometry" />
        </mxCell>
        <mxCell id="vc-KUkAJ0mW3v1jckHB1-22" value="update incumbent" style="rounded=1;whiteSpace=wrap;html=1;" vertex="1" parent="WIyWlLk6GJQsqaUBKTNV-1">
          <mxGeometry x="50" y="390" width="120" height="60" as="geometry" />
        </mxCell>
        <mxCell id="vc-KUkAJ0mW3v1jckHB1-27" style="edgeStyle=orthogonalEdgeStyle;rounded=0;orthogonalLoop=1;jettySize=auto;html=1;entryX=0.5;entryY=0;entryDx=0;entryDy=0;" edge="1" parent="WIyWlLk6GJQsqaUBKTNV-1" source="vc-KUkAJ0mW3v1jckHB1-25" target="vc-KUkAJ0mW3v1jckHB1-28">
          <mxGeometry relative="1" as="geometry">
            <mxPoint x="269" y="600" as="targetPoint" />
          </mxGeometry>
        </mxCell>
        <mxCell id="vc-KUkAJ0mW3v1jckHB1-25" value="branch on non integer variables" style="rounded=1;whiteSpace=wrap;html=1;" vertex="1" parent="WIyWlLk6GJQsqaUBKTNV-1">
          <mxGeometry x="204" y="500" width="130" height="60" as="geometry" />
        </mxCell>
        <mxCell id="vc-KUkAJ0mW3v1jckHB1-31" style="edgeStyle=orthogonalEdgeStyle;rounded=0;orthogonalLoop=1;jettySize=auto;html=1;entryX=0.5;entryY=0;entryDx=0;entryDy=0;" edge="1" parent="WIyWlLk6GJQsqaUBKTNV-1" source="vc-KUkAJ0mW3v1jckHB1-28" target="vc-KUkAJ0mW3v1jckHB1-29">
          <mxGeometry relative="1" as="geometry" />
        </mxCell>
        <mxCell id="vc-KUkAJ0mW3v1jckHB1-28" value="explore subproblems" style="rounded=1;whiteSpace=wrap;html=1;" vertex="1" parent="WIyWlLk6GJQsqaUBKTNV-1">
          <mxGeometry x="209" y="600" width="120" height="60" as="geometry" />
        </mxCell>
        <mxCell id="vc-KUkAJ0mW3v1jckHB1-30" style="edgeStyle=orthogonalEdgeStyle;rounded=0;orthogonalLoop=1;jettySize=auto;html=1;entryX=1;entryY=0.5;entryDx=0;entryDy=0;" edge="1" parent="WIyWlLk6GJQsqaUBKTNV-1" source="vc-KUkAJ0mW3v1jckHB1-29" target="vc-KUkAJ0mW3v1jckHB1-0">
          <mxGeometry relative="1" as="geometry">
            <Array as="points">
              <mxPoint x="710" y="720" />
              <mxPoint x="710" y="110" />
            </Array>
          </mxGeometry>
        </mxCell>
        <mxCell id="vc-KUkAJ0mW3v1jckHB1-35" style="edgeStyle=orthogonalEdgeStyle;rounded=0;orthogonalLoop=1;jettySize=auto;html=1;entryX=0.5;entryY=0;entryDx=0;entryDy=0;" edge="1" parent="WIyWlLk6GJQsqaUBKTNV-1" source="vc-KUkAJ0mW3v1jckHB1-29" target="vc-KUkAJ0mW3v1jckHB1-32">
          <mxGeometry relative="1" as="geometry" />
        </mxCell>
        <mxCell id="vc-KUkAJ0mW3v1jckHB1-29" value="solve relaxed LP for each branch" style="rounded=1;whiteSpace=wrap;html=1;" vertex="1" parent="WIyWlLk6GJQsqaUBKTNV-1">
          <mxGeometry x="210" y="690" width="120" height="60" as="geometry" />
        </mxCell>
        <mxCell id="vc-KUkAJ0mW3v1jckHB1-38" style="edgeStyle=orthogonalEdgeStyle;rounded=0;orthogonalLoop=1;jettySize=auto;html=1;" edge="1" parent="WIyWlLk6GJQsqaUBKTNV-1" source="vc-KUkAJ0mW3v1jckHB1-32" target="vc-KUkAJ0mW3v1jckHB1-36">
          <mxGeometry relative="1" as="geometry" />
        </mxCell>
        <mxCell id="vc-KUkAJ0mW3v1jckHB1-41" value="" style="edgeStyle=orthogonalEdgeStyle;rounded=0;orthogonalLoop=1;jettySize=auto;html=1;" edge="1" parent="WIyWlLk6GJQsqaUBKTNV-1" source="vc-KUkAJ0mW3v1jckHB1-32" target="vc-KUkAJ0mW3v1jckHB1-40">
          <mxGeometry relative="1" as="geometry" />
        </mxCell>
        <mxCell id="vc-KUkAJ0mW3v1jckHB1-32" value="check all&amp;nbsp;&lt;div&gt;subproblems solved&lt;/div&gt;" style="rhombus;whiteSpace=wrap;html=1;" vertex="1" parent="WIyWlLk6GJQsqaUBKTNV-1">
          <mxGeometry x="200" y="780" width="140" height="90" as="geometry" />
        </mxCell>
        <mxCell id="vc-KUkAJ0mW3v1jckHB1-39" style="edgeStyle=orthogonalEdgeStyle;rounded=0;orthogonalLoop=1;jettySize=auto;html=1;" edge="1" parent="WIyWlLk6GJQsqaUBKTNV-1" source="vc-KUkAJ0mW3v1jckHB1-36">
          <mxGeometry relative="1" as="geometry">
            <mxPoint x="710" y="720" as="targetPoint" />
          </mxGeometry>
        </mxCell>
        <mxCell id="vc-KUkAJ0mW3v1jckHB1-36" value="Explore next branch" style="rounded=1;whiteSpace=wrap;html=1;" vertex="1" parent="WIyWlLk6GJQsqaUBKTNV-1">
          <mxGeometry x="400" y="795" width="120" height="60" as="geometry" />
        </mxCell>
        <mxCell id="vc-KUkAJ0mW3v1jckHB1-40" value="TERMINATE&lt;div&gt;&lt;span style=&quot;background-color: initial;&quot;&gt;Output: Best incumbent&lt;/span&gt;&lt;/div&gt;" style="whiteSpace=wrap;html=1;" vertex="1" parent="WIyWlLk6GJQsqaUBKTNV-1">
          <mxGeometry x="200" y="910" width="140" height="60" as="geometry" />
        </mxCell>
        <mxCell id="vc-KUkAJ0mW3v1jckHB1-42" value="Yes" style="text;html=1;align=center;verticalAlign=middle;whiteSpace=wrap;rounded=0;" vertex="1" parent="WIyWlLk6GJQsqaUBKTNV-1">
          <mxGeometry x="280" y="210" width="60" height="30" as="geometry" />
        </mxCell>
        <mxCell id="vc-KUkAJ0mW3v1jckHB1-43" value="No" style="text;html=1;align=center;verticalAlign=middle;whiteSpace=wrap;rounded=0;" vertex="1" parent="WIyWlLk6GJQsqaUBKTNV-1">
          <mxGeometry x="520" y="210" width="60" height="30" as="geometry" />
        </mxCell>
        <mxCell id="vc-KUkAJ0mW3v1jckHB1-44" value="Yes" style="text;html=1;align=center;verticalAlign=middle;whiteSpace=wrap;rounded=0;" vertex="1" parent="WIyWlLk6GJQsqaUBKTNV-1">
          <mxGeometry x="160" y="385" width="60" height="30" as="geometry" />
        </mxCell>
        <mxCell id="vc-KUkAJ0mW3v1jckHB1-45" value="Yes" style="text;html=1;align=center;verticalAlign=middle;whiteSpace=wrap;rounded=0;" vertex="1" parent="WIyWlLk6GJQsqaUBKTNV-1">
          <mxGeometry x="220" y="870" width="60" height="30" as="geometry" />
        </mxCell>
        <mxCell id="vc-KUkAJ0mW3v1jckHB1-46" value="No" style="text;html=1;align=center;verticalAlign=middle;whiteSpace=wrap;rounded=0;" vertex="1" parent="WIyWlLk6GJQsqaUBKTNV-1">
          <mxGeometry x="250" y="470" width="60" height="30" as="geometry" />
        </mxCell>
        <mxCell id="vc-KUkAJ0mW3v1jckHB1-47" value="No" style="text;html=1;align=center;verticalAlign=middle;whiteSpace=wrap;rounded=0;" vertex="1" parent="WIyWlLk6GJQsqaUBKTNV-1">
          <mxGeometry x="329" y="795" width="60" height="30" as="geometry" />
        </mxCell>
      </root>
    </mxGraphModel>
  </diagram>
</mxfile>
